<svg width="20" height="24" viewBox="0 0 20 24" fill="none" xmlns="http://www.w3.org/2000/svg">
<path d="M9.90945 23.8661C9.90945 23.8661 10.1158 23.661 10.4665 23.2914L10.4505 23.2754C10.4343 23.259 10.4096 23.2342 10.3772 23.2013C10.3124 23.1354 10.2164 23.037 10.0938 22.9092C10.0377 22.8508 9.97616 22.7862 9.90944 22.7158M9.90945 23.8661L9.90944 22.7158M9.90945 23.8661C9.90945 23.8661 9.70309 23.661 9.35236 23.2914L9.90945 23.8661ZM9.90944 22.7158C10.1349 22.4779 10.419 22.173 10.7454 21.8119C11.5922 20.875 12.7194 19.5644 13.8447 18.0667C14.9719 16.5665 16.0853 14.8943 16.9138 13.2337C17.7485 11.5607 18.2593 9.96735 18.2593 8.60698C18.2593 4.58528 14.6094 1.19081 9.90945 1.19081C5.20951 1.19081 1.55958 4.58528 1.55958 8.60698C1.55958 9.96735 2.07043 11.5607 2.90512 13.2337C3.73362 14.8943 4.84695 16.5665 5.97419 18.0667C7.09949 19.5644 8.22673 20.875 9.07347 21.8119C9.39985 22.173 9.68396 22.4779 9.90944 22.7158ZM7.06397 11.2774C7.83189 11.967 8.85663 12.3417 9.90945 12.3417C10.9623 12.3417 11.987 11.967 12.7549 11.2774C13.5257 10.5853 13.9777 9.627 13.9777 8.60698C13.9777 7.58696 13.5257 6.62864 12.7549 5.93654C11.987 5.24698 10.9623 4.87222 9.90945 4.87222C8.85663 4.87222 7.83189 5.24698 7.06397 5.93654C6.29323 6.62864 5.84122 7.58696 5.84122 8.60698C5.84122 9.627 6.29323 10.5853 7.06397 11.2774Z" stroke="#6496EB" stroke-width="1.60061"/>
</svg>
