<svg width="44" height="51" viewBox="0 0 44 51" fill="none" xmlns="http://www.w3.org/2000/svg">
<path d="M1.57108 11.8057L20.368 0.913146C21.3429 0.348175 22.5453 0.346843 23.5215 0.909652L42.4229 11.8069C43.3987 12.3695 44 13.4102 44 14.5366V35.9016C44 37.0152 43.4122 38.0461 42.4539 38.6132L23.5527 49.7997C22.5608 50.3867 21.3275 50.3853 20.3369 49.7961L1.54 38.6143C0.585135 38.0463 0 37.0174 0 35.9063V14.5319C0 13.408 0.598652 12.3692 1.57108 11.8057Z" fill="#6496EB"/>
<path d="M21.8878 13.5038L10.1279 24.9884L21.8878 37.1356L33.7596 24.9884L21.8878 13.5038Z" fill="white"/>
<path d="M27.4579 25.4323H16.6548L22.0563 30.9463L27.4579 25.4323Z" fill="#6496EB"/>
</svg>
