<svg width="17" height="24" viewBox="0 0 17 24" fill="none" xmlns="http://www.w3.org/2000/svg">
<path d="M16.366 2.05167V0.0509033H0.359863V2.05167H5.86197C6.9661 2.05491 8.03035 2.46472 8.8515 3.20283C9.67266 3.94095 10.1932 4.95566 10.3137 6.0532H0.359863V8.05396H10.3137C10.1932 9.1515 9.67266 10.1662 8.8515 10.9043C8.03035 11.6424 6.9661 12.0523 5.86197 12.0555H0.359863V14.4014L9.98054 23.0597L11.3191 21.5731L2.96686 14.0563H5.86197C7.49868 14.0539 9.07438 13.4347 10.2749 12.3223C11.4754 11.2098 12.2126 9.68576 12.3394 8.05396H16.366V6.0532H12.3394C12.2247 4.55106 11.5896 3.13597 10.5438 2.05167H16.366Z" fill="#6496EB"/>
</svg>
