<svg width="21" height="22" viewBox="0 0 21 22" fill="none" xmlns="http://www.w3.org/2000/svg">
<path d="M8.40461 0.658325H8.4046C7.12763 0.658587 5.8695 0.96638 4.73663 1.55567C3.60376 2.14496 2.62948 2.99841 1.89618 4.04385C1.16288 5.08928 0.692136 6.29594 0.523769 7.56176C0.355401 8.82758 0.49436 10.1153 0.928892 11.3161C1.36342 12.5169 2.08075 13.5953 3.02019 14.4602C3.95963 15.3252 5.09356 15.9511 6.32606 16.2852C7.55857 16.6192 8.8534 16.6515 10.101 16.3794C11.2742 16.1235 12.3731 15.6054 13.3161 14.8653L18.9349 20.4854L18.9439 20.4945L18.9538 20.5025L19.0518 20.5823L19.0592 20.5884L19.0671 20.5938C19.2622 20.7293 19.5009 20.7868 19.7363 20.755C19.9717 20.7232 20.1867 20.6044 20.3388 20.422C20.491 20.2396 20.5693 20.0068 20.5583 19.7695C20.5473 19.5322 20.4478 19.3076 20.2795 19.14L14.6598 13.5217C15.5444 12.3953 16.1093 11.0496 16.2927 9.62631C16.4858 8.12736 16.2477 6.60442 15.6064 5.23589C14.9651 3.86737 13.947 2.70995 12.6716 1.89923C11.3961 1.08851 9.91595 0.658068 8.40461 0.658325ZM4.12557 4.33112C5.26045 3.19624 6.79968 2.55867 8.40465 2.55867C10.0096 2.55867 11.5489 3.19624 12.6837 4.33112C13.8186 5.46601 14.4562 7.00524 14.4562 8.61021C14.4562 10.2152 13.8186 11.7544 12.6837 12.8893C11.5489 14.0242 10.0096 14.6617 8.40465 14.6617C6.79968 14.6617 5.26045 14.0242 4.12557 12.8893C2.99068 11.7544 2.35311 10.2152 2.35311 8.61021C2.35311 7.00524 2.99068 5.46601 4.12557 4.33112Z" fill="white" stroke="white" stroke-width="0.5"/>
</svg>
